<svg xmlns="http://www.w3.org/2000/svg" width="70" height="19" viewBox="0 0 70 19" fill="none">
  <g clip-path="url(#clip0_656_5905)">
    <path d="M47.2678 2.82449V6.92281L47.2563 6.92991L43.1209 9.38748L39.4064 11.5941L35.2871 14.0422V9.11521L43.1209 4.45814L46.5272 2.43384L47.2563 2.81739L47.2678 2.82449Z" fill="white"/>
    <path d="M35.2871 14.0753L43.1209 18.73L43.2888 18.8295L47.2103 16.2322L43.1209 13.8031L39.4064 11.5941L35.2871 9.146V14.0422V14.0753Z" fill="white"/>
    <path d="M47.2105 16.2323L43.289 18.8295L43.1211 18.7301V13.8031V9.38752V4.45817V0.641602L46.5274 2.43388L47.2565 2.81743L47.268 2.82453V6.92285V16.1944L47.2105 16.2323Z" fill="#CFCFCF"/>
    <path d="M57.1121 2.90747L52.6133 17.6268H48.2686L52.7651 2.90747H57.1121Z" fill="#DDDDDD"/>
    <path d="M9.41016 3.04712V7.9741L4.87226 10.6732L1.04736 12.9461V8.01671L9.41016 3.04712Z" fill="white"/>
    <path d="M13.3386 15.3775L9.19166 17.8398L1.04736 13.0004V8.07104L4.87226 10.3463L13.3386 15.3775Z" fill="white"/>
    <path d="M69.8355 12.8538V8.05469L65.799 10.4554L61.4727 13.0243V17.9536L69.8355 12.984V12.8538Z" fill="white"/>
    <path d="M69.8354 8.03558V12.9626L65.7989 10.5642L57.604 5.69402L61.6083 3.14648L69.8354 8.03558Z" fill="white"/>
    <path d="M35.7816 18.1903H30.9677L28.9368 11.5989L26.6621 4.22144H31.476L35.7816 18.1903Z" fill="white"/>
    <path d="M17.835 4.22144H22.4419L20.1396 11.696L18.1386 18.1903H13.3247L17.628 4.22144H17.835Z" fill="white"/>
    <path d="M21.9291 18.1903L19.9281 11.696L17.6235 4.22144H22.2304H22.4374L24.4177 10.6447L26.743 18.1903H22.0924H21.9291Z" fill="white"/>
    <path d="M26.9543 18.1903H22.3037L24.629 10.6447L26.607 4.22144H26.8761H31.4232L29.1485 11.5989L27.1176 18.1903H26.9543Z" fill="white"/>
  </g>
  <defs>
    <clipPath id="clip0_656_5905">
      <rect width="69" height="19" fill="white" transform="translate(0.941406)"/>
    </clipPath>
  </defs>
</svg>