<svg width="38" height="38" viewBox="0 0 38 38" fill="none" xmlns="http://www.w3.org/2000/svg">
<path fill-rule="evenodd" clip-rule="evenodd" d="M37.001 8.3476C37.001 12.4048 33.7106 15.6952 29.6534 15.6952C25.5962 15.6952 22.3076 12.4048 22.3076 8.3476C22.3076 4.2904 25.5962 1 29.6534 1C33.7106 1 37.001 4.2904 37.001 8.3476Z" stroke="#0D703C" stroke-width="1.5" stroke-linecap="round" stroke-linejoin="round"/>
<path fill-rule="evenodd" clip-rule="evenodd" d="M15.6934 8.3476C15.6934 12.4048 12.4048 15.6952 8.3458 15.6952C4.2904 15.6952 1 12.4048 1 8.3476C1 4.2904 4.2904 1 8.3458 1C12.4048 1 15.6934 4.2904 15.6934 8.3476Z" stroke="#0D703C" stroke-width="1.5" stroke-linecap="round" stroke-linejoin="round"/>
<path fill-rule="evenodd" clip-rule="evenodd" d="M37.001 29.5239C37.001 33.5811 33.7106 36.8697 29.6534 36.8697C25.5962 36.8697 22.3076 33.5811 22.3076 29.5239C22.3076 25.4667 25.5962 22.1763 29.6534 22.1763C33.7106 22.1763 37.001 25.4667 37.001 29.5239Z" stroke="#0D703C" stroke-width="1.5" stroke-linecap="round" stroke-linejoin="round"/>
<path fill-rule="evenodd" clip-rule="evenodd" d="M15.6934 29.5239C15.6934 33.5811 12.4048 36.8697 8.3458 36.8697C4.2904 36.8697 1 33.5811 1 29.5239C1 25.4667 4.2904 22.1763 8.3458 22.1763C12.4048 22.1763 15.6934 25.4667 15.6934 29.5239Z" stroke="#0D703C" stroke-width="1.5" stroke-linecap="round" stroke-linejoin="round"/>
</svg>
